<svg id="Livello_1" data-name="Livello 1" xmlns="http://www.w3.org/2000/svg" viewBox="0 0 511.8 442.8">
  <defs>
    <style>
      .cls-1 {
        fill: #050606;
      }

      .cls-2 {
        fill: #be302d;
      }
    </style>
  </defs>
  <g>
    <path class="cls-1" d="M12.1,74.1v-6a17.6,17.6,0,0,1,8.6-5.3Q101.6,40,182.2,16.7c4.7-1.3,8.2-.7,11.7,2.8,12.7,12.6,27.9,21.2,44.9,26.7,11.2,3.5,22.7,4.7,34.3,5.4,0,17.6,0,35.3-.1,52.9-.2,62.9,0,125.9-.7,188.8-.6,55.1-.3,110.2-.4,165.3l-1.9.2H131c-5.6,0-8.1-2.5-8.2-8.2-.3-8.2-.4-16.3-.5-24.5q-.6-59.9-1-119.8c-.3-35.2-.7-70.3-1-105.4-.1-9.1,0-18.2,0-27.7L48.4,189.6c-6.7,1.6-9.6-.2-11.1-6.9C31.5,157.2,26,131.6,20,106.1,17.5,95.4,15.9,84.4,12.1,74.1Z" transform="translate(-12.1 -16)"/>
    <path class="cls-2" d="M271.9,458.6c.1-55.1-.2-110.2.4-165.3.7-62.9.5-125.9.7-188.8.1-17.6.1-35.3.1-52.9a6.9,6.9,0,0,1,2-.3c30.6-.6,56.9-11.8,78.9-33,3-2.8,6.1-2.6,9.7-1.5L469.8,47.7l54.1,15.4V106c-1.7.8-1.4,2.6-1.7,3.9q-8.2,35.7-16.3,71.5c-1.9,8.5-3.7,9.7-12,7.8l-70.7-16c-.1,1.2-.2,2.2-.2,3.2l-.9,80.9-.6,95.9c-.2,32.1-.5,64.3-.7,96.4-.1,6.7-2.5,9.1-9.5,9.2H374.4Z" transform="translate(-12.1 -16)"/>
  </g>
</svg>
