<?xml version="1.0" encoding="utf-8"?>
<!-- Generator: Adobe Illustrator 25.4.1, SVG Export Plug-In . SVG Version: 6.00 Build 0)  -->
<svg version="1.1" id="Livello_1" xmlns="http://www.w3.org/2000/svg" xmlns:xlink="http://www.w3.org/1999/xlink" x="0px" y="0px"
	 viewBox="0 0 595.3 127.3" style="enable-background:new 0 0 595.3 127.3;" xml:space="preserve">
<style type="text/css">
	.st0{fill:#B42927;}
</style>
<path d="M57,113.3c-2.4,1.8-5.6,3.2-9.5,4.3c-3.9,1-8.6,1.6-14.2,1.6c-4.3,0-8.1-0.7-11.4-2c-3.2-1.4-5.9-3.2-8.1-5.5
	c-2.2-2.3-3.8-5.1-4.8-8.4c-1-3.2-1.6-6.7-1.6-10.4c0-5,0.8-9.2,2.5-12.8c1.7-3.6,3.9-6.6,6.8-9.1c2.9-2.4,6.3-4.3,10.3-5.7
	c4-1.4,8.2-2.4,12.8-3v-3.2c0-7.2-3.3-10.8-10-10.8c-2.9,0-5.7,0.4-8.6,1.2c-2.8,0.8-5.2,1.7-7.1,2.7l-3.8-12.6
	c2.1-1.3,5.1-2.5,9.1-3.6c4-1.2,8.5-1.8,13.6-1.8c7.5,0,13.3,2.2,17.5,6.5s6.3,11,6.3,20V113.3z M39.9,73.7c-5,0.7-9,2.5-11.8,5.2
	c-2.8,2.7-4.2,7-4.2,12.6c0,4.1,0.8,7.5,2.5,10.2c1.7,2.7,4.2,4.1,7.6,4.1c1.3,0,2.4-0.1,3.4-0.4c1-0.3,1.8-0.6,2.4-0.9V73.7z"/>
<path d="M111.4,113.7c-1.3,1.4-3.1,2.6-5.5,3.7c-2.4,1.1-5.7,1.7-10.1,1.7c-8.2,0-14.7-3.5-19.4-10.6c-4.7-7.1-7.1-17.7-7.1-32
	c0-14.1,2.4-24.8,7.2-31.9c4.8-7.1,11.2-10.7,19.3-10.7c4.1,0,7.3,0.6,9.7,1.7c2.4,1.1,4.4,2.4,5.8,3.7l-4.1,11.9
	c-0.7-0.7-1.8-1.4-3.2-2.2c-1.4-0.7-3.1-1.1-5-1.1c-3.7,0-6.6,2.2-8.6,6.7c-2,4.5-3,11.6-3,21.5c0,9.7,1.1,16.8,3.2,21.3
	c2.2,4.5,5,6.8,8.4,6.8c1.9,0,3.6-0.3,5-1c1.4-0.7,2.5-1.4,3.2-2.3L111.4,113.7z"/>
<path d="M152.3,116.8c-0.5,0.4-1.6,0.8-3,1.2c-1.5,0.4-3.3,0.7-5.3,0.7c-5.9,0-10.4-1.9-13.6-5.6c-3.2-3.7-4.8-8.8-4.8-15.3V48.5
	h-6.6V35.3h6.6V18.4l17.6-5.5v22.4h9.2v13.2h-9.2v46.7c0,3.4,0.5,5.8,1.6,7.1c1,1.3,2.5,2,4.3,2c1.2,0,2.3-0.2,3.4-0.7V116.8z"/>
<path class="st0" d="M183.3,12.6c0,2.7-0.9,5-2.8,6.9c-1.9,1.9-4.2,2.8-6.8,2.8c-2.7,0-5-0.9-6.8-2.8c-1.9-1.9-2.8-4.2-2.8-6.9
	s0.9-5,2.8-6.9c1.9-1.9,4.2-2.8,6.8-2.8c2.7,0,5,0.9,6.8,2.8C182.4,7.6,183.3,9.9,183.3,12.6z"/>
<rect x="165" y="35.3" width="17.6" height="82.5"/>
<path d="M248.6,76.5c0,13.8-2.2,24.3-6.6,31.6c-4.4,7.3-11.1,10.9-20.1,10.9c-9,0-15.7-3.6-20.1-10.9c-4.4-7.3-6.6-17.8-6.6-31.6
	s2.2-24.3,6.6-31.6c4.4-7.3,11.1-10.9,20.1-10.9c9,0,15.7,3.6,20.1,10.9C246.4,52.2,248.6,62.7,248.6,76.5z M230.7,76.1
	c0-9.8-0.6-17.1-1.8-21.8s-3.5-7.1-7-7.1c-3.4,0-5.7,2.4-7,7.1s-1.8,12-1.8,21.8c0,9.8,0.6,17.1,1.8,21.8c1.2,4.7,3.5,7.1,7,7.1
	c3.4,0,5.7-2.4,7-7.1C230,93.2,230.7,85.9,230.7,76.1z"/>
<path d="M294,117.7V57.8c0-3.3-0.7-5.9-2-7.8c-1.3-1.9-3.6-2.8-6.8-2.8c-1.5,0-2.8,0.1-3.9,0.4c-1,0.3-2,0.6-2.8,1.1v69.1h-17.6
	V39.3c2.8-1.5,6.2-2.8,10.2-3.9c4-1,8.7-1.6,14.1-1.6c9.6,0,16.3,2,20.3,6.1c4,4.1,5.9,9.7,5.9,17v60.7H294z"/>
<path class="st0" d="M453.7,55.4c-0.6-2.1-1.4-3.7-2.5-4.9c-1.1-1.2-2.4-1.8-3.9-1.8c-1.5,0-2.9,0.6-4,1.9c-1.1,1.2-2.1,3-2.8,5.2
	c-0.7,2.2-1.3,4.9-1.6,7.9c-0.3,3-0.4,6.4-0.4,10.1l16.9-2.1c0-3.2-0.1-6.2-0.4-9C454.8,60,454.4,57.5,453.7,55.4z"/>
<path class="st0" d="M495.6,89.7c0,3.7,0.8,6.8,2.3,9.3c1.5,2.5,3.9,3.8,7,3.8c1.2,0,2.2-0.1,3.1-0.4c0.9-0.2,1.6-0.5,2.2-0.9V73.4
	c-4.6,0.7-8.2,2.2-10.8,4.8C496.8,80.7,495.6,84.5,495.6,89.7z"/>
<path class="st0" d="M308.3,33.7c0,0,10.6,4,10.6,18.6c0,5,0,66.8,0,66.8h268.6V33.7H308.3z M399.4,113.7h-14.5L376.8,75
	c-0.3-1.2-0.6-2.5-0.7-3.6c-0.2-1.2-0.3-2.3-0.5-3.3c-0.2-1.2-0.3-2.3-0.4-3.3h-0.2c-0.1,1-0.2,2.1-0.4,3.2c-0.2,1-0.3,2.1-0.5,3.3
	c-0.2,1.2-0.4,2.5-0.6,3.7l-8.2,38.7h-14.6l-15.4-75.4h15.6l7.2,42.9c0.2,1.2,0.3,2.5,0.5,3.7c0.2,1.2,0.3,2.3,0.5,3.3
	c0.2,1.2,0.3,2.3,0.4,3.3h0.2c0.1-1.1,0.2-2.2,0.4-3.3c0.2-1,0.3-2.1,0.5-3.3c0.2-1.2,0.4-2.5,0.6-3.7l8.4-42.9h12.6l8.3,42.9
	c0.2,1.3,0.5,2.6,0.6,3.8c0.2,1.2,0.3,2.3,0.5,3.3c0.2,1.2,0.3,2.3,0.4,3.3h0.2c0-1.1,0.1-2.2,0.2-3.3c0.2-1,0.3-2.1,0.4-3.3
	c0.1-1.2,0.3-2.5,0.6-3.8l7.4-42.9H415L399.4,113.7z M471.5,77.4c0,1.2-0.1,2.3-0.2,3.5L438.8,85c0.2,4.7,1.3,8.6,3.5,11.7
	c2.2,3.1,5.3,4.6,9.3,4.6c3.3,0,6.2-0.4,8.7-1.2c2.5-0.8,4.4-1.6,5.8-2.6l3.7,12.4c-1.9,1.3-4.5,2.5-7.9,3.5c-3.4,1-7.4,1.5-12,1.5
	c-9.2,0-16.1-3.4-20.6-10.1c-4.5-6.8-6.8-16.1-6.8-28.1c0-12.8,2.1-22.6,6.4-29.4c4.3-6.8,10.5-10.3,18.8-10.3
	c4.2,0,7.8,0.9,10.8,2.7c3,1.8,5.5,4.3,7.4,7.6c1.9,3.3,3.4,7.2,4.3,11.7c0.9,4.5,1.4,9.6,1.4,15.1
	C471.6,75.2,471.6,76.3,471.5,77.4z M525.7,109.6c-2.2,1.6-5.1,2.9-8.7,3.9c-3.5,0.9-7.9,1.4-13,1.4c-4,0-7.4-0.6-10.4-1.9
	c-3-1.2-5.4-2.9-7.4-5.1c-2-2.1-3.4-4.7-4.4-7.7c-0.9-3-1.4-6.1-1.4-9.5c0-4.5,0.8-8.4,2.3-11.7c1.5-3.3,3.6-6.1,6.2-8.3
	c2.6-2.2,5.8-4,9.4-5.3c3.6-1.3,7.5-2.2,11.7-2.8v-3c0-6.6-3-9.9-9.1-9.9c-2.6,0-5.3,0.4-7.8,1.1c-2.6,0.7-4.8,1.6-6.5,2.5L483.2,42
	c1.9-1.2,4.7-2.3,8.3-3.3c3.7-1.1,7.8-1.6,12.4-1.6c6.8,0,12.2,2,16,5.9c3.8,4,5.7,10.1,5.7,18.3V109.6z M566.1,51.2
	c-1.6-0.9-3.5-1.4-5.6-1.5c-2.1-0.1-3.9,0.2-5.4,0.9v63.2h-16.1V42c2.4-1.4,5.5-2.6,9.3-3.5c3.8-0.9,8.1-1.4,12.8-1.4
	c1.4,0,2.8,0,4.2,0.1c1.4,0.1,2.7,0.2,3.8,0.4L566.1,51.2z"/>
</svg>
